<svg xmlns="http://www.w3.org/2000/svg" width="642.375" height="154.25" viewBox="0 0 642.375 154.25">
  <defs>
    <style>
      .cls-1 {
        fill: #fff;
        fill-rule: evenodd;
      }
    </style>
  </defs>
  <path id="Sketchbook_logo" class="cls-1" d="M451.355,261.584c3.527-3.72,7.961-4.212,12.149-5.106a24.152,24.152,0,0,1,14.728,1.507c5.111,2.168,7.943,6.278,9.916,11.241,2.736,6.884,3.53,14.124,3.937,21.4,0.705,12.613,1.192,25.238,1.776,37.858,0.175,3.789-3.482,7.935-7.29,8.2-1.2.084-2.028-.23-2.062-1.741-0.14-6.318-.515-12.633-0.528-18.949a260.939,260.939,0,0,0-2.825-40.376,5.543,5.543,0,0,0-1.887-3.109c-3.584-2.92-7.317-5.611-12.1-6.314-3.67-.539-6.834.336-9.172,3.235a71.2,71.2,0,0,0-5.319,7.519,15.428,15.428,0,0,0-1.994,8.652c0.363,15.312.614,30.628,0.861,45.943,0.025,1.6-.308,3.2-0.352,4.8a2.239,2.239,0,0,1-2.575,2.387c-1.453-.086-3.246.3-4-1.788-0.962-2.665-2.327-5.194-3.16-7.893a12.31,12.31,0,0,1,.068-8.165,20.725,20.725,0,0,0,.751-7.114c-0.058-8.355-.172-16.713-0.487-25.061-0.09-2.382-1.313-4.726-1.37-7.1-0.388-16.045-.605-32.093-0.868-48.141-0.035-2.147.131-4.167,2.642-5.067,0.494-.178.628-1.241,1.135-1.527a7.95,7.95,0,0,1,3.177-1.171c1.3-.088.992,1.192,1.247,2.063,2.368,8.073,1,16.472,2.225,24.638C450.418,255.355,450.861,258.305,451.355,261.584ZM253.494,284.2a11.029,11.029,0,0,0,3.762-6.634,5.8,5.8,0,0,1,1.087-2.485,75.855,75.855,0,0,1,18.547-16.418,3.959,3.959,0,0,1,1.744-.927c1.248,0,2.934-.11,3.625.61a5.006,5.006,0,0,1,.846,3.772c-0.158,1.066-1.186,2.037-1.924,2.975-6.073,7.733-12.185,15.435-18.218,23.2a2.34,2.34,0,0,0-.153,2.068q7.848,14.782,15.847,29.485c2.948,5.389,6.079,10.679,9.135,16.009,0.3,0.521.656,1.009,0.984,1.513,2.83,4.357,2.83,4.357-1.474,7.451-1.319-1.428-2.557-2.991-4.017-4.308a46.573,46.573,0,0,1-12.813-17.9c-1.626-4.2-4.317-7.98-6.451-11.99-2.322-4.361-4.552-8.77-6.829-13.155-0.238-.458-0.527-0.889-0.819-1.379a6.438,6.438,0,0,0-3.178,5.959c-0.1,6.816-.475,13.629-0.553,20.445-0.043,3.7-3.094,4.532-5.35,6.066a22.972,22.972,0,0,1-4.5,1.831c-0.023-.328-0.1-0.953-0.1-1.578-0.092-13.111-.312-26.223-0.219-39.333,0.069-9.61.718-19.215,0.805-28.825,0.1-10.7-.273-21.406-0.173-32.106a48.671,48.671,0,0,1,1.472-10.225c0.547-2.411,2.837-3.016,4.924-1.629,2.218,1.475,2.978,3.672,2.968,6.231-0.027,7.295-.3,14.6.01,21.882,0.265,6.188,1.375,12.336,1.78,18.524,0.175,2.678-.637,5.405-0.727,8.119C253.393,275.564,253.494,279.692,253.494,284.2Zm251.883-53.315a26.484,26.484,0,0,1-1.97-2.2,4.406,4.406,0,0,1-.426-5.083c1.3-2.306,3.522-2.712,5.891-2.571a4.254,4.254,0,0,1,4.107,2.981,6.285,6.285,0,0,1,.354,1.963c0.026,6.024.053,12.049,0,18.072-0.046,5.275-.2,10.55-0.3,15.825-0.012.592,0,1.185,0,1.7,3.094,0.556,6.025,1.077,8.954,1.612a6.166,6.166,0,0,1,4.172,2.837,73.621,73.621,0,0,0,4.641,6.3,36.982,36.982,0,0,1,8.548,20.825c0.575,6.187,1.288,12.393-.226,18.572a20.076,20.076,0,0,1-4.872,9.516c-1.207,1.25-2.372,2.552-3.448,3.916a13.772,13.772,0,0,1-9.472,5.061,2.364,2.364,0,0,0-.984.125c-3.611,2.7-7.651.652-11.468,1a2.165,2.165,0,0,1-1.569-1.367c-0.73-3.507-1.741-7.043-1.805-10.584-0.171-9.49.3-18.992,0.119-28.482-0.195-9.963-1.02-19.914-1.261-29.878-0.165-6.88.2-13.773,0.315-20.66,0.029-1.873-.1-3.751,0-5.62A31.787,31.787,0,0,1,505.377,230.885Zm7.894,43.693V324.2c2.961-.676,5.549-1.187,8.092-1.865,5.472-1.459,8.672-5.176,9.648-10.623a55.413,55.413,0,0,0,.655-9.382,39.72,39.72,0,0,0-5.243-20.5C523.447,276.649,519.079,274.834,513.271,274.578Zm-210.96,22.537a17.846,17.846,0,0,0,2.936,12.382,88.765,88.765,0,0,0,6.325,8.008c2.364,2.649,5.323,2.986,8.595,1.606,4.719-1.992,8.621-4.769,10.588-9.762a40.579,40.579,0,0,1,2.568-4.987c0.851-1.5,2.094-2.49,3.944-2.071,1.766,0.4,2.088,1.828,2.24,3.385a11.828,11.828,0,0,1-2.156,8.761,63.411,63.411,0,0,1-9.049,9.825c-6.894,5.62-16.286,4.865-22.6.581a20.191,20.191,0,0,1-8.539-11.552c-1.838-6.268-3.687-12.533-5.5-18.809a3.546,3.546,0,0,1,.02-1.56c1.086-5.9,2.263-11.791,3.282-17.707,1.057-6.14,4.4-11.122,7.915-16.013a6.476,6.476,0,0,1,2.694-2.028c3.687-1.532,7.383-3.084,11.183-4.289,4.306-1.365,10.795,1.4,12.647,5.5a38.378,38.378,0,0,1,2.991,9.5c1.044,6.456,1.8,12.975,2.307,19.5,0.347,4.437-1.451,5.8-5.857,6.286-7.364.817-14.689,1.973-22.033,2.969C305.371,296.831,303.917,296.946,302.311,297.115Zm2.038-10.319c7.3-.538,14.278-1.04,21.254-1.605a1.405,1.405,0,0,0,1-.915,43.07,43.07,0,0,0-.357-6.938,50.39,50.39,0,0,0-2.086-7.5,43.5,43.5,0,0,0-2.987-7.362c-2.092-3.707-8.141-3.683-10.327-.011C306.469,269.809,304.88,277.936,304.349,286.8ZM423.354,331.3c-12.82-.683-23.584-3.655-31.828-11.255-2.657-2.45-5.245-4.957-7.725-7.528-1.573-1.631-1.636-3.53-1.343-5.61a13.046,13.046,0,0,0-.432-6.3c-3.211-8.542-.243-16.2,4.508-23.654a8.542,8.542,0,0,1,1.822-1.735c3.149-2.608,6.326-5.193,9.48-7.8,4.007-3.31,8.979-5.265,14.242-6.794,2.136-.62,4.314-1.145,6.482-1.691a9.775,9.775,0,0,1,8.641,1.925,3.117,3.117,0,0,1,.88,4.248c-0.909,1.859-1.878,3.647-4.767,3.972a53.113,53.113,0,0,0-5.433.925c-2.575.566-5.1,1.3-7.674,1.855a25.777,25.777,0,0,0-13.276,7.228c-1.676,1.7-3.479,3.321-5.181,5.007a4.007,4.007,0,0,0-1.093,1.531c-1.414,4.816-2.182,9.632-.921,14.605,1.854,7.31,6.585,13.081,13.482,17.756a12.5,12.5,0,0,0,3.992,1.805c6.774,1.619,13.588,3.131,20.408,4.619,1.98,0.432,3.2,1.38,3.251,2.873a3.439,3.439,0,0,1-2.98,3.473C426.14,331.084,424.334,331.191,423.354,331.3Zm-58.527-82.954c5.216,0.491,10.263.966,15.31,1.439,0.2,0.018.4,0,.6,0.007,2.416,0.081,4.148,1.3,4.155,2.932,0.007,1.842-1.807,3.457-4.2,3.51-4.413.1-8.828,0.077-13.242,0.121-0.785.007-1.569,0.092-2.91,0.176,0,3.379.1,6.629-.019,9.872-0.265,7.476-.64,14.915.171,22.418,0.556,5.139.042,10.4-.032,15.6-0.036,2.607-.2,5.212-0.231,7.819-0.074,6.547-.083,13.1-0.2,19.642a1.742,1.742,0,0,1-1.094,1.224,2.882,2.882,0,0,1-3.583-2.315,24.615,24.615,0,0,1-.646-3.141c-0.2-1.782-.42-3.281-2.229-4.509-1.019-.692-1.483-2.8-1.5-4.273-0.095-7.826.018-15.656,0.085-23.484q0.162-18.765.378-37.53a2.09,2.09,0,0,0-2.106-2.369c-3.964-.569-7.931-1.114-11.9-1.676-0.785-.112-1.566-0.26-2.312-0.385-0.421-3.015,1.894-6.233,4.714-6.441,3.464-.256,6.943-0.458,10.412-0.417,1.859,0.022,2.5-.507,2.422-2.362-0.234-5.744-.289-11.5-0.545-17.239-0.117-2.608.649-4.024,3.721-5.192,2.639-1,4.851.447,5.1,3.316a42,42,0,0,1-.057,4.61q-0.207,8.6-.416,17.2A13.181,13.181,0,0,0,364.827,248.348ZM683.958,272.69a6.084,6.084,0,0,0-2.665,5.289q0.488,18.058,1.029,36.116c0.149,4.882.42,9.76,0.565,14.643,0.069,2.341-2.823,4.578-5.045,4.013-4.524-1.15-5.292-1.984-5.417-6.644-0.261-9.765-.4-19.533-0.638-29.3-0.117-4.788-.34-9.573-0.534-14.358a11,11,0,0,0-.247-1.472,10.256,10.256,0,0,1-2.649-.721c-1.325-.8-1.829-2.075-0.737-3.388,3.959-4.76,4.427-10.289,4.28-16.22-0.371-14.918-.385-29.844-0.534-44.767a22.841,22.841,0,0,1,.1-2.807c0.317-2.778,2.7-3.958,5.136-2.532,2.757,1.616,3.816,4.136,3.819,7.247,0,6.759-.019,13.521.119,20.278,0.127,6.14.453,12.277,0.688,18.32,1.778,0.7,2.622-.282,3.453-1.264,6.181-7.3,12.327-14.635,18.544-21.906q9.456-11.058,19.029-22.017c1.867-2.148,3.411-2.509,5.188-1.377,2.185,1.39,3.168,3.8,2.094,6.056a39.039,39.039,0,0,1-4.014,6.888c-3.158,4.147-6.461,8.2-9.939,12.081-2.039,2.275-4.606,4.067-6.792,6.222a59.217,59.217,0,0,0-3.808,4.566,30.735,30.735,0,0,1-3.228,3.813c-4.455,3.861-6.942,9.12-10.123,13.886-0.922,1.381-.13,2.557.692,3.654q9.264,12.366,18.542,24.721c2.811,3.744,5.588,7.513,8.463,11.207a84.969,84.969,0,0,0,15.895,15.772,6.4,6.4,0,0,1,1.742,2.162c5.193,10.2,12,19.286,19.27,28.058a6.029,6.029,0,0,1,1.231,1.569c0.457,1.314,1.185,2.79.94,4.029-0.329,1.664-2.167,1.237-3.533,1.485-3.335.605-5.162-1.42-7.044-3.561-5.989-6.813-12.169-13.464-17.975-20.428-8.43-10.111-16.759-20.316-24.828-30.716-6.8-8.768-13.175-17.873-19.739-26.828C684.869,273.883,684.431,273.317,683.958,272.69ZM132.65,324c2.419-.849,4.718-1.52,6.905-2.453,4.866-2.077,7.877-5.441,7.187-11.144a3.575,3.575,0,0,1,0-.4c-0.036-7.183.269-7.352,8.108-10.2a69.011,69.011,0,0,1,7.182-1.826c2.652-.651,5-0.344,6.831,1.976,1.78,2.252,3.727,4.373,5.482,6.643,4.745,6.138,10.386,10.994,18.215,12.605,5.948,1.225,11.706.217,17.25-2.063a11.543,11.543,0,0,0,5.779-5.633c2.723-5.236,4.968-10.651,5.616-16.6a17.41,17.41,0,0,0-2.644-11.875,41.181,41.181,0,0,0-21.907-16.955c-7.784-2.6-15.438-5.583-23.124-8.466a15.369,15.369,0,0,1-7.377-5.654c-2.361-3.4-4.721-6.815-6.852-10.362-3.68-6.125-4.043-12.586-1.5-19.249,4.7-12.313,13.748-18.522,26.737-20.129,8.2-1.014,15.377.431,21.889,5.387,6.278,4.778,9.219,11.421,10.5,18.976,0.457,2.7.9,5.4,1.43,8.088a9.4,9.4,0,0,1-1.666,7.6,5.8,5.8,0,0,1-3.067,1.951c-2.256.58-3.567-.517-3.433-2.84,0.127-2.188.8-4.349,0.876-6.534a15.684,15.684,0,0,0-.617-6.045c-3.248-8.383-8.591-14.688-17.794-16.942a17.474,17.474,0,0,0-14.545,2.519c-6.519,4.43-10.835,10.474-12.137,18.357a10.186,10.186,0,0,0,.484,5.071,23.017,23.017,0,0,0,13.353,13.862c8.068,3.2,16.1,6.492,24.226,9.536a40.879,40.879,0,0,1,23.093,21.073c1.188,2.429,1.423,5.379,1.807,8.13a88.193,88.193,0,0,1,.715,9.19,9.97,9.97,0,0,1-.584,4.29c-2.483,5.533-5.059,11.032-7.847,16.416a15.008,15.008,0,0,1-3.876,4.531c-9.471,7.67-20.1,12.885-32.293,14.5-6.124.809-12.236,0.2-18.375-.259a69.3,69.3,0,0,1-25.269-7.189A21.911,21.911,0,0,1,132.65,324Zm-16.528-49.376c3.278,0.595,6.271,1.161,9.273,1.677,6.051,1.042,12.276,1.489,18.116,3.231,6.7,2,12.456,5.993,17.451,11.892-2.984.924-5.394,1.608-7.76,2.419a49.941,49.941,0,0,0-8.359,3.188,7.825,7.825,0,0,0-3.172,4.282,30.193,30.193,0,0,0-.953,7.476c-0.16,3.83-1.487,5.819-5.067,7.015-2.257.754-4.488,1.611-6.785,2.214a2.415,2.415,0,0,1-2.141-.682c-1.28-2.161-2.821-4.351-3.357-6.735-2.577-11.452-4.86-22.971-7.237-34.468A10.427,10.427,0,0,1,116.122,274.627Zm545.229,16.926c0.006,10.988-2.246,18.919-5.064,26.71a13.477,13.477,0,0,1-2.463,3.851c-5.215,6.239-12.341,9-20.07,10.032-2.682.36-5.575-1.108-8.4-1.534-6.36-.956-9.491-5.659-12.626-10.464-3.339-5.116-4.558-10.74-5.2-16.771-1.182-11.1.915-21.729,3.492-32.351a72.086,72.086,0,0,1,2.795-9.06,7.889,7.889,0,0,1,2.652-2.855,44.5,44.5,0,0,1,17.116-7.869,9.166,9.166,0,0,1,7.476,1.307,40.828,40.828,0,0,0,3.946,1.8c1.17,0.592,2.589,1.064,3.355,2.022a56.567,56.567,0,0,1,10.916,21.16C660.663,282.908,660.935,288.57,661.351,291.553Zm-46.88,2.616c-0.329,5.822,1.539,10.734,2.457,15.819,0.934,5.179,3.344,8.275,7.842,10.877,3.533,2.045,6.771,3.319,10.708,2.331,7.041-1.766,13.6-4.172,15.86-12.2,0.5-1.787,1.55-3.427,2-5.222a24.63,24.63,0,0,0,1.145-7.173c-0.309-5.509-1.055-11-1.692-16.484-0.181-1.567-.191-3.36-0.977-4.614-2.3-3.662-4.887-7.144-7.46-10.625-6.484-8.77-16.138-8-22.7.316-0.646.818-.866,1.523,0.043,2.207,1.108,0.835.768,1.617,0.1,2.54C616.88,278.731,614.046,286.2,614.471,294.169Zm-65.933,1.257c0.5-10.711,1.013-19.256,3.968-27.47,1.354-3.764,3.312-6.551,7.518-7.409a5.894,5.894,0,0,0,3.114-2.053c5.15-6.5,14.524-6.229,20.794-3.752,6.738,2.661,10.794,7.7,13.349,14.331a40.01,40.01,0,0,1,1.7,23.112c-0.674,3.239-.81,6.587-1.464,9.831-1.221,6.052-4.891,10.866-8.385,15.745a12.312,12.312,0,0,0-1.053,1.458c-2.721,5.324-7.923,6.165-13.015,7.265a13.9,13.9,0,0,1-9.725-1.081c-2.417-1.253-4.994-2.2-7.435-3.406-3.169-1.57-4.989-4.357-6.22-7.523A45.393,45.393,0,0,1,548.538,295.426Zm7.932-4.107c0,1.536-.085,3.078.015,4.607,0.4,6.168-.472,12.686,4.681,17.6,0.14,0.133.174,0.387,0.322,0.5,0.982,0.761,1.885,1.894,2.995,2.164a50.259,50.259,0,0,0,7.525,1.055,7.209,7.209,0,0,0,3.321-.381c5.219-2.215,9.339-5.585,11.49-11.066,0.369-.942,1.64-1.522,2.462-2.3,0.628-.6,1.606-1.173,1.735-1.883a85.458,85.458,0,0,0,1.307-9.7,58.737,58.737,0,0,0-1.06-14.107,35.5,35.5,0,0,0-3.037-9.412,5.931,5.931,0,0,0-3.906-3.459c-3.038-.754-6.119-1.719-9.2-1.792a16.235,16.235,0,0,0-6.921,1.883,32.623,32.623,0,0,0-5.519,3.924,3.947,3.947,0,0,0-1.567,1.669C559.383,277.472,555.474,283.855,556.47,291.319Z" transform="translate(-116.094 -201.906)"/>
</svg>
